<?xml version="1.0" encoding="utf-8"?>
<!-- Generator: Adobe Illustrator 22.1.0, SVG Export Plug-In . SVG Version: 6.00 Build 0)  -->
<svg version="1.1" id="圖層_1" xmlns="http://www.w3.org/2000/svg" xmlns:xlink="http://www.w3.org/1999/xlink" x="0px" y="0px"
	 viewBox="0 0 42.7 48.5" style="enable-background:new 0 0 42.7 48.5;" xml:space="preserve">
<style type="text/css">
	.st0{fill:#FFFFFF;}
</style>
<path class="st0" d="M39.1,11.4c-2-2-4.3-2.3-5.2-2.3C33.6,9,33.4,9,33.1,9c-3.5-0.4-7.4-0.6-11.5-0.6c-4.3,0-8.2,0.2-11.8,0.5
	C9.5,9,9.1,9,8.8,9c-4.1,0.2-7.4,3.7-7.4,7.8v13c0,2.2,0.9,4.1,2.3,5.5c2.2,2.2,5,2.3,5.5,2.3c3.7,0.3,7.7,0.5,12,0.5
	c4.5,0,8.6-0.2,12.4-0.5c4.2,0,7.7-3.5,7.8-7.7v-13C41.4,14.7,40.5,12.8,39.1,11.4z M17.4,30.9c0-5.4,0-10.6,0-16c4,2.7,8,5.3,12,8
	C25.4,25.6,21.4,28.2,17.4,30.9z"/>
</svg>
