<?xml version="1.0" encoding="utf-8"?>
<!-- Generator: Adobe Illustrator 22.1.0, SVG Export Plug-In . SVG Version: 6.00 Build 0)  -->
<svg version="1.1" id="圖層_1" xmlns="http://www.w3.org/2000/svg" xmlns:xlink="http://www.w3.org/1999/xlink" x="0px" y="0px"
	 viewBox="0 0 42.7 48.5" style="enable-background:new 0 0 42.7 48.5;" xml:space="preserve">
<style type="text/css">
	.st0{fill:#373FC7;}
	.st1{fill:#FD5334;}
	.st2{fill:#3EDFFE;}
	.st3{fill:#70A1FF;}
	.st4{fill:#2C2A96;}
	.st5{fill:url(#SVGID_1_);}
	.st6{clip-path:url(#SVGID_3_);}
	.st7{fill:none;stroke:#FFFFFF;stroke-width:3;stroke-linecap:round;stroke-miterlimit:10;}
	.st8{fill:#FD5334;stroke:#FFFFFF;stroke-width:1.5;stroke-linecap:round;stroke-miterlimit:10;}
	.st9{fill:none;stroke:#FFFFFF;stroke-miterlimit:10;}
	.st10{clip-path:url(#SVGID_9_);}
	.st11{fill:none;stroke:#70A1FF;stroke-linecap:round;stroke-miterlimit:10;}
	.st12{fill:none;stroke:#FFFFFF;stroke-width:2;stroke-linecap:round;stroke-miterlimit:10;}
	.st13{fill:url(#SVGID_10_);}
	.st14{fill:url(#SVGID_11_);}
	.st15{clip-path:url(#SVGID_13_);}
	.st16{opacity:0.5;}
	.st17{fill:none;stroke:#70A1FF;stroke-width:3;stroke-linecap:round;stroke-miterlimit:10;}
	.st18{opacity:0.5;clip-path:url(#SVGID_17_);}
	.st19{fill:none;stroke:#FFFFFF;stroke-width:11;stroke-miterlimit:10;}
	.st20{fill:#FFFFFF;}
	.st21{fill:none;stroke:#3EDFFE;stroke-width:3;stroke-linecap:round;stroke-linejoin:round;stroke-miterlimit:10;}
	.st22{fill:none;stroke:#70A1FF;stroke-width:2;stroke-linecap:round;stroke-miterlimit:10;}
	.st23{fill:#F7A600;}
	.st24{fill:#C90020;}
	.st25{fill:#E29D2F;}
	.st26{fill:#DF5F13;}
	.st27{clip-path:url(#SVGID_19_);}
</style>
<path class="st20" d="M23.8,43.5c-2.4,0-4.7,0-7,0c0-6,0-12.1,0-18.2c-0.3,0-0.5,0-0.7,0c-1.7,0-3.4,0-5.1,0c-0.2,0-0.5-0.2-0.5-0.3
	c0-1.9,0-3.8,0-5.8c0.3,0,0.5,0,0.8,0c1.6,0,3.3,0,4.9,0c0.5,0,0.7-0.1,0.7-0.7c0.1-1.8,0-3.6,0.3-5.4c0.7-3.9,4.1-6.9,8.2-6.9
	c1.8,0,3.5,0,5.3,0c0.2,0,0.3,0,0.6,0c0,0.7,0,1.4,0,2.1c0,1.2,0,2.5,0,3.7c0,0.4-0.1,0.6-0.6,0.6c-1.6,0-3.3,0-4.9,0
	c-0.9,0-1.7,0.5-1.8,1.3c-0.1,1.7,0,3.3,0,5.1c0.2,0,0.5,0,0.7,0c1.9,0,3.9,0,5.8,0c0.5,0,0.7,0.1,0.7,0.7c0,1.6,0,3.2,0,4.8
	c0,0.5-0.2,0.6-0.6,0.6c-2,0-4,0-6,0c-0.2,0-0.5,0-0.8,0C23.8,31.3,23.8,37.4,23.8,43.5z"/>
</svg>
