<?xml version="1.0" encoding="utf-8"?>
<!-- Generator: Adobe Illustrator 22.1.0, SVG Export Plug-In . SVG Version: 6.00 Build 0)  -->
<svg version="1.1" id="圖層_1" xmlns="http://www.w3.org/2000/svg" xmlns:xlink="http://www.w3.org/1999/xlink" x="0px" y="0px"
	 viewBox="0 0 42.7 48.5" style="enable-background:new 0 0 42.7 48.5;" xml:space="preserve">
<style type="text/css">
	.st0{fill:#373FC7;}
	.st1{fill:#FD5334;}
	.st2{fill:#3EDFFE;}
	.st3{fill:#70A1FF;}
	.st4{fill:#2C2A96;}
	.st5{fill:url(#SVGID_1_);}
	.st6{clip-path:url(#SVGID_3_);}
	.st7{fill:none;stroke:#FFFFFF;stroke-width:3;stroke-linecap:round;stroke-miterlimit:10;}
	.st8{fill:#FD5334;stroke:#FFFFFF;stroke-width:1.5;stroke-linecap:round;stroke-miterlimit:10;}
	.st9{fill:none;stroke:#FFFFFF;stroke-miterlimit:10;}
	.st10{clip-path:url(#SVGID_9_);}
	.st11{fill:none;stroke:#70A1FF;stroke-linecap:round;stroke-miterlimit:10;}
	.st12{fill:none;stroke:#FFFFFF;stroke-width:2;stroke-linecap:round;stroke-miterlimit:10;}
	.st13{fill:url(#SVGID_10_);}
	.st14{fill:url(#SVGID_11_);}
	.st15{clip-path:url(#SVGID_13_);}
	.st16{opacity:0.5;}
	.st17{fill:none;stroke:#70A1FF;stroke-width:3;stroke-linecap:round;stroke-miterlimit:10;}
	.st18{opacity:0.5;clip-path:url(#SVGID_17_);}
	.st19{fill:none;stroke:#FFFFFF;stroke-width:11;stroke-miterlimit:10;}
	.st20{fill:#FFFFFF;}
	.st21{fill:none;stroke:#3EDFFE;stroke-width:3;stroke-linecap:round;stroke-linejoin:round;stroke-miterlimit:10;}
	.st22{fill:none;stroke:#70A1FF;stroke-width:2;stroke-linecap:round;stroke-miterlimit:10;}
	.st23{fill:#F7A600;}
	.st24{fill:#C90020;}
	.st25{fill:#E29D2F;}
	.st26{fill:#DF5F13;}
	.st27{clip-path:url(#SVGID_19_);}
</style>
<g>
	<path class="st20" d="M3.5,33.5c0-6,0-12.1,0-18.1c0-0.1,0.1-0.3,0.1-0.4C4.4,10.4,7,7.4,11.4,6c0.6-0.2,1.3-0.3,1.9-0.5
		c6,0,12.1,0,18.1,0c0.1,0,0.2,0.1,0.4,0.1c4.5,0.8,7.5,3.4,9,7.7c0.2,0.6,0.3,1.3,0.5,2c0,6,0,12.1,0,18.1c0,0.1-0.1,0.3-0.1,0.4
		c-0.8,5.4-5.4,9.4-10.9,9.4c-5.3,0-10.6,0-15.9,0c-4.8,0-9-3.2-10.4-7.7C3.8,34.9,3.6,34.2,3.5,33.5z M38.4,24.5c0-2.6,0-5.2,0-7.8
		c0-4.7-3.5-8.2-8.2-8.2c-5.2,0-10.4,0-15.6,0c-4.6,0-8.2,3.5-8.2,8.2c0,5.2,0,10.4,0,15.6c0,4.7,3.5,8.2,8.2,8.2
		c5.2,0,10.4,0,15.5,0c4.7,0,8.2-3.5,8.2-8.2C38.4,29.6,38.4,27.1,38.4,24.5z"/>
	<path class="st20" d="M32.6,24.5c0,5.6-4.6,10.2-10.2,10.1c-5.6,0-10.2-4.7-10.1-10.2c0-5.6,4.6-10.2,10.2-10.1
		C28,14.3,32.6,18.9,32.6,24.5z M15.1,24.4c0,4,3.3,7.3,7.3,7.3c4,0,7.2-3.2,7.3-7.2c0-4-3.2-7.3-7.2-7.3
		C18.4,17.1,15.1,20.4,15.1,24.4z"/>
	<path class="st20" d="M33.3,15.7c-1.2,0-2.2-1-2.2-2.2c0-1.2,1-2.1,2.2-2.1c1.2,0,2.2,1,2.2,2.2C35.4,14.8,34.4,15.7,33.3,15.7z"/>
</g>
</svg>
