<svg id="圖層_1" data-name="圖層 1" xmlns="http://www.w3.org/2000/svg" viewBox="0 0 139.13 61.56"><defs><style>.cls-1{fill:#cdaa87;}</style></defs><title>0707-web</title><path class="cls-1" d="M130.34,45.26a47.63,47.63,0,0,1-5.62,3A100.88,100.88,0,0,1,100.47,54c-6.55.78-13.07.37-19.58-.17C71.45,53,62,52,52.59,51.24c-2.51-.22-5.06,0-7.75,0,0,.53,0,1.18,0,1.83a1.34,1.34,0,0,1-1.42,1.4H13.21c-1.94,0-2.27-.33-2.27-2.23,0-2.63,0-5.25,0-7.88a10.9,10.9,0,0,1,.43-2,1.16,1.16,0,0,0,0-.64c-2-4.55-1.63-9.19-.38-13.8.84-3.09,1.93-6.11,2.91-9.16.06-.18.12-.37.2-.55,1.11-2.33,1.55-2.93,4.1-1.49a34.21,34.21,0,0,0,17.46,4.76,22.42,22.42,0,0,0,14.21-5c2.7-2.2,5.22-4.61,7.73-7a2.61,2.61,0,0,1,3-.76A80.82,80.82,0,0,1,80.51,19.09c1.22.85,2.37,1.8,3.59,2.65A2.29,2.29,0,0,1,85.24,24a1.41,1.41,0,0,0,.55,1.1A49.9,49.9,0,0,0,98.5,30.75a21.7,21.7,0,0,0,4.17.58c4.85.22,9.72.16,14.54.6A29.19,29.19,0,0,1,124.48,34a6.2,6.2,0,0,1,3.6,3.82,1.13,1.13,0,0,0,1.11.92c.41,0,.77.57,1.15.88ZM16.53,19.39c-.78,2.49-1.69,5.07-2.37,7.71a50.74,50.74,0,0,0-1.31,7,11.84,11.84,0,0,0,1.32,6.93,1.69,1.69,0,0,0,1.63,1.06c9.83.24,19.66.53,29.48.77a1.35,1.35,0,0,0,1-.62,13.57,13.57,0,0,1,6.93-6.71c5.16-2.49,10.71-3.17,16.34-3.18,4,0,8,.26,12.08.41.23-2.68.48-5.52.69-8.36a1,1,0,0,0-.37-.77c-1-.77-2-1.48-3-2.27-.21.47-.38.82-.52,1.18-.59,1.42-1.17,1.85-2.08,1.52s-1.06-1.18-.49-2.62l.7-1.73L73,17.53c-.38.77-.69,1.48-1.08,2.15s-1,1.15-1.86.75a1.35,1.35,0,0,1-.61-2c.34-.74.7-1.47,1.1-2.31l-3.72-1.91c-.46.82-.84,1.59-1.28,2.32a1.38,1.38,0,1,1-2.41-1.32c.33-.7.7-1.38,1.12-2.19-1.22-.48-2.39-.9-3.52-1.4a1.3,1.3,0,0,0-1.65.34c-1.76,1.68-3.54,3.32-5.35,4.94C45.77,24,36.54,25.77,26.4,23,23.1,22.07,20,20.65,16.53,19.39ZM49.08,43c6.81.68,13.46,1.36,20.12,2,6.12.57,12.24,1.18,18.36,1.59,11.87.81,23.29-1.44,34.43-5.37,1.24-.43,2.47-.93,3.71-1.4A4.29,4.29,0,0,0,123,36.3,15.47,15.47,0,0,0,118.75,35c-3.69-.39-7.4-.55-11.11-.76-2.69-.15-5.42,0-8.08-.4C95,33.14,91,31,86.92,29l-2-1c-.18,2.1-.31,4-.51,5.91s-.53,2.16-2.55,2c-4.53-.28-9.06-.65-13.59-.65a31.42,31.42,0,0,0-13.59,2.72A10.84,10.84,0,0,0,49.08,43ZM13.8,44.85v6.73H42.11c0-.65,0-1.23,0-1.81.06-1.25.41-1.63,1.65-1.61,2.62.05,5.25,0,7.86.25,10.85.89,21.69,1.8,32.52,2.82a83.85,83.85,0,0,0,26.71-1.76,84.28,84.28,0,0,0,15.43-4.78,1.74,1.74,0,0,0,1.16-2.41,1.2,1.2,0,0,0-.27,0l-1.42.54c-12.12,4.64-24.59,7.38-37.63,6.57C81.56,49,75,48.3,68.46,47.74c-7.91-.68-15.82-1.54-23.75-2-9.46-.51-18.94-.64-28.41-.93C15.49,44.83,14.67,44.85,13.8,44.85Z"/></svg>