<?xml version="1.0" encoding="utf-8"?>
<!-- Generator: Adobe Illustrator 22.1.0, SVG Export Plug-In . SVG Version: 6.00 Build 0)  -->
<svg version="1.1" id="圖層_1" xmlns="http://www.w3.org/2000/svg" xmlns:xlink="http://www.w3.org/1999/xlink" x="0px" y="0px"
	 viewBox="0 0 108.7 111" style="enable-background:new 0 0 108.7 111;" xml:space="preserve">
<style type="text/css">
	.st0{fill:#D2C7BE;}
	.st1{fill:#C8B181;}
	.st2{fill:#F5F1EF;}
	.st3{fill:#EDE9E0;}
	.st4{fill:#D7AF83;}
	.st5{fill:#D2C9BE;}
	.st6{fill:#FFFFFF;}
	.st7{fill:#E3DFD6;}
	.st8{fill:none;stroke:#FFFFFF;stroke-width:2.5432;stroke-miterlimit:10;}
	.st9{fill:none;stroke:#FFFFFF;stroke-width:1.6534;stroke-linecap:round;stroke-miterlimit:10;}
	.st10{fill:none;stroke:#FFFFFF;stroke-width:1.1268;stroke-linecap:round;stroke-miterlimit:10;}
	.st11{fill:#C6A474;}
	.st12{fill:#CDAA87;}
	.st13{clip-path:url(#SVGID_12_);}
	.st14{opacity:0.6;fill:#606060;}
	.st15{fill:url(#SVGID_13_);}
	.st16{fill:url(#SVGID_14_);}
	.st17{fill:url(#SVGID_15_);}
	.st18{fill:none;stroke:#FFFFFF;stroke-width:1.5;stroke-linecap:round;stroke-linejoin:round;stroke-miterlimit:10;}
	.st19{fill:none;stroke:#FFFFFF;stroke-width:1.4682;stroke-linecap:round;stroke-linejoin:round;stroke-miterlimit:10;}
</style>
<g>
	<path class="st6" d="M51,34.9c0.2-0.1,0.4-0.2,0.6-0.2c0.3,0,0.5,0.1,0.8,0.3c0.2,0.2,0.3,0.4,0.3,0.7c0,0.2,0,0.3-0.1,0.5
		l-5.1,14.3c-0.1,0.3-0.3,0.5-0.5,0.6s-0.5,0.2-0.8,0.2c-0.3,0-0.5-0.1-0.7-0.2s-0.4-0.3-0.5-0.6l-4.2-11.9l-4.3,11.9
		c-0.1,0.3-0.3,0.5-0.5,0.6c-0.2,0.1-0.5,0.2-0.7,0.2c-0.3,0-0.5-0.1-0.7-0.2c-0.2-0.1-0.4-0.3-0.5-0.6L29,36.2
		c-0.1-0.1-0.1-0.3-0.1-0.5c0-0.3,0.1-0.6,0.3-0.7c0.2-0.2,0.5-0.3,0.8-0.3c0.2,0,0.4,0.1,0.6,0.2c0.2,0.1,0.3,0.3,0.4,0.6l4.3,12.3
		l4.3-12.2c0.1-0.3,0.2-0.5,0.4-0.6c0.2-0.1,0.4-0.2,0.7-0.2c0.2,0,0.5,0.1,0.7,0.2c0.2,0.1,0.4,0.3,0.5,0.6l4.2,12.2l4.3-12.4
		C50.6,35.2,50.8,35,51,34.9z"/>
	<path class="st6" d="M79.1,49.7c0,0.3-0.1,0.5-0.3,0.7c-0.2,0.2-0.5,0.3-0.7,0.3c-0.3,0-0.5-0.1-0.7-0.3l-2.2-2.2
		c-0.8,0.8-1.6,1.4-2.6,1.9c-1,0.4-2,0.6-3,0.6c-1.1,0-2.1-0.2-3-0.6c-0.9-0.4-1.6-0.9-2-1.6s-0.7-1.5-0.7-2.4c0-1.1,0.3-2,1-2.9
		c0.6-0.8,1.6-1.6,3-2.4c-0.7-0.7-1.2-1.4-1.5-2c-0.3-0.6-0.5-1.3-0.5-1.9c0-1.2,0.4-2.2,1.3-2.9c0.8-0.7,1.9-1.1,3.2-1.1
		c1.3,0,2.3,0.3,3,1c0.7,0.7,1.1,1.5,1.1,2.7c0,0.9-0.3,1.7-0.8,2.4c-0.5,0.7-1.4,1.4-2.6,2.1l3.9,3.9c0.5-1.1,0.9-2.4,1-3.9
		c0-0.3,0.1-0.6,0.4-0.8c0.2-0.2,0.5-0.3,0.8-0.3c0.3,0,0.5,0.1,0.8,0.3c0.2,0.2,0.3,0.5,0.3,0.9c-0.1,2.1-0.7,3.8-1.6,5.4l2.4,2.5
		C79,49.2,79.1,49.5,79.1,49.7z M71.8,48.3c0.7-0.3,1.3-0.8,1.9-1.5l-4.6-4.6c-1,0.6-1.8,1.2-2.2,1.8c-0.4,0.6-0.7,1.3-0.7,2
		c0,0.9,0.3,1.6,0.9,2.1s1.5,0.7,2.5,0.7C70.4,48.8,71.1,48.6,71.8,48.3z M68.6,35.3c-0.4,0.4-0.6,0.9-0.6,1.6
		c0,0.5,0.1,0.9,0.4,1.3c0.2,0.4,0.7,0.9,1.2,1.6c1-0.6,1.6-1.1,2-1.6c0.4-0.5,0.6-1,0.6-1.5c0-0.6-0.2-1-0.5-1.4
		c-0.4-0.4-0.8-0.5-1.4-0.5C69.6,34.7,69,34.9,68.6,35.3z"/>
	<path class="st6" d="M36.7,78.5c-1.2-0.4-2.1-0.8-2.8-1.5c-0.3-0.3-0.5-0.6-0.5-1c0-0.3,0.1-0.6,0.3-0.8c0.2-0.2,0.4-0.3,0.6-0.3
		c0.2,0,0.5,0.1,0.9,0.3c1.5,1.1,3.2,1.7,5.2,1.7c1.4,0,2.4-0.3,3.1-0.8c0.7-0.5,1.1-1.2,1.1-2.2c0-0.7-0.3-1.3-1-1.7
		c-0.7-0.4-1.8-0.7-3.3-1.1c-1.4-0.3-2.6-0.7-3.5-1c-0.9-0.4-1.6-0.9-2.1-1.6c-0.5-0.7-0.8-1.5-0.8-2.6c0-1,0.3-2,0.9-2.8
		c0.6-0.8,1.4-1.4,2.4-1.9c1-0.4,2.2-0.7,3.5-0.7c1.2,0,2.3,0.2,3.3,0.5c1,0.3,1.9,0.8,2.6,1.5c0.3,0.3,0.5,0.6,0.5,1
		c0,0.3-0.1,0.5-0.3,0.8c-0.2,0.2-0.4,0.3-0.6,0.3c-0.2,0-0.5-0.1-0.8-0.3c-0.8-0.6-1.5-1-2.2-1.3c-0.7-0.3-1.5-0.4-2.5-0.4
		c-1.3,0-2.3,0.3-3.1,0.8c-0.7,0.5-1.1,1.3-1.1,2.2c0,0.8,0.3,1.4,1,1.8c0.6,0.4,1.7,0.8,3.1,1.1c1.5,0.3,2.7,0.7,3.6,1.1
		c0.9,0.4,1.7,0.9,2.2,1.5c0.6,0.6,0.8,1.5,0.8,2.5c0,1-0.3,1.9-0.9,2.7c-0.6,0.8-1.4,1.4-2.4,1.8c-1,0.4-2.2,0.6-3.5,0.6
		C39.1,79.1,37.9,78.9,36.7,78.5z"/>
	<path class="st6" d="M66.4,78c-1.2-0.7-2.2-1.8-2.9-3.2c-0.7-1.4-1-3-1-4.9c0-1.9,0.3-3.5,1-4.9c0.7-1.4,1.6-2.4,2.9-3.2
		c1.3-0.7,2.7-1.1,4.4-1.1c1.7,0,3.2,0.4,4.5,1.1c1.3,0.7,2.2,1.8,2.9,3.2c0.7,1.4,1,3,1,4.9s-0.3,3.5-1,4.9
		c-0.7,1.4-1.6,2.4-2.9,3.2c-1.3,0.7-2.7,1.1-4.5,1.1C69.1,79.1,67.6,78.7,66.4,78z M75,75.1c1-1.2,1.5-3,1.5-5.2
		c0-2.3-0.5-4-1.5-5.2c-1-1.2-2.4-1.8-4.2-1.8c-1.8,0-3.2,0.6-4.2,1.8c-1,1.2-1.5,2.9-1.5,5.2c0,2.3,0.5,4,1.5,5.2
		c1,1.2,2.4,1.8,4.2,1.8C72.6,76.9,74,76.3,75,75.1z"/>
	<circle class="st8" cx="54.4" cy="55.5" r="43"/>
	<line class="st9" x1="65.3" y1="54.1" x2="76.3" y2="54.1"/>
</g>
</svg>
